# xmcd CD database file
#
# Track frame offsets:
#	150
#	17845
#	31287
#	47515
#	65075
#	92035
#	111435
#	129005
#	147335
#	167545
#
# Disc length: 2423 seconds
#
# Revision: 1
# Processed by: cddbd v1.5.2PL0 Copyright (c) Steve Scherf et al.
# Submitted via: CDex 1.51
#
DISCID=8109750a
DTITLE=Rita Coolidge - Rita Coolidge
DYEAR=1971
DGENRE=Southern Rock
TTITLE0=That Man Is My Weakness
TTITLE1=Second Story Window
TTITLE2=Crazy Love
TTITLE3=The Happy Song
TTITLE4=Seven Bridges Road
TTITLE5=Bort Under A Bad Sign
TTITLE6=Ain't That Peculiar
TTITLE7=(I Always Called Them) Mountains
TTITLE8=Mud Island
TTITLE9=I Believe In You
EXTD=YEAR: 1971
EXTT0=
EXTT1=
EXTT2=
EXTT3=
EXTT4=
EXTT5=
EXTT6=
EXTT7=
EXTT8=
EXTT9=
PLAYORDER=
